<?xml version="1.0" encoding="UTF-8"?>
<svg version="1.1" xmlns="http://www.w3.org/2000/svg" width="194" height="194">
<path d="M0 0 C20.00515147 16.77434536 35.90174695 38.37046677 39 65 C40.93897011 92.42019962 36.56905277 118.43228529 18.46484375 140.0234375 C1.3775026 159.39844482 -20.80252994 174.35963262 -47.21777344 176.22753906 C-75.29909516 177.47577226 -100.7998239 172.07219251 -122.125 152.6875 C-141.0712561 134.91024243 -154.20968124 112.68082682 -155.3828125 86.2890625 C-156.07517877 58.5606379 -149.64163822 34.0097681 -130.25439453 13.34765625 C-96.23437384 -22.04702742 -40.34562203 -30.5269972 0 0 Z " fill="#262043" transform="translate(155,18)"/>
<path d="M0 0 C5.66411313 1.56251397 7.71635092 4.4797936 10.66796875 9.41796875 C13.29600897 14.8097177 13.70110718 20.34145824 14.25 26.25 C14.36770752 27.38356934 14.48541504 28.51713867 14.60668945 29.68505859 C14.96052414 33.12210308 15.29362986 36.56072678 15.625 40 C15.83313115 42.04963248 16.04268143 44.09912153 16.25390625 46.1484375 C16.72700618 50.76416374 17.18189684 55.38130122 17.625 60 C18.16769531 59.31292969 18.71039063 58.62585938 19.26953125 57.91796875 C19.98496094 57.01691406 20.70039062 56.11585937 21.4375 55.1875 C22.14519531 54.29417969 22.85289063 53.40085938 23.58203125 52.48046875 C25.18911377 50.52923089 26.79540423 48.73725024 28.625 47 C32.66266257 48.59030578 35.20871381 51.47795734 38.125 54.5625 C43.83624925 60.45945189 49.95434274 65.23200899 56.625 70 C58.28942248 71.66442248 58.06987516 73.78631944 58.34375 76.07421875 C58.53457153 77.65323975 58.53457153 77.65323975 58.72924805 79.26416016 C58.92514526 80.95871338 58.92514526 80.95871338 59.125 82.6875 C59.2588208 83.83782715 59.3926416 84.9881543 59.53051758 86.17333984 C60.43838664 94.11032486 61.33349037 102.0126361 61.625 110 C61.66286621 110.90089355 61.70073242 111.80178711 61.73974609 112.72998047 C61.85787596 115.84073352 61.93368419 118.9502388 62 122.0625 C62.05740356 123.56417725 62.05740356 123.56417725 62.1159668 125.09619141 C62.19678883 132.25592952 62.19678883 132.25592952 59.2265625 136.12109375 C55.42418545 138.86725495 53.34643565 139.47214357 48.625 139 C46.46557617 137.55810547 46.46557617 137.55810547 44.625 135 C44.01844163 131.92408229 44.04359393 128.8853627 44.05078125 125.7578125 C44.03747772 124.84541306 44.02417419 123.93301361 44.01046753 122.9929657 C43.98402546 121.04428472 43.96617929 119.0954715 43.95614624 117.14663696 C43.93746914 114.1199988 43.88879507 111.09522408 43.83129883 108.0690918 C43.68309756 99.87888415 43.57394649 91.70141129 43.7734375 83.51171875 C44.2928491 73.83561417 44.2928491 73.83561417 39.890625 65.70703125 C37.04993315 63.30231884 34.00802308 61.56139527 30.625 60 C25.15793274 62.44645019 21.07734597 66.1260998 17.625 71 C16.20862442 75.63946647 15.87093049 80.17034377 15.625 85 C13.7811086 112.99362402 13.7811086 112.99362402 7.625 124 C3.69077545 126.67199417 0.2366695 126.36600552 -4.375 126 C-6.10546875 124.8203125 -6.10546875 124.8203125 -7.375 123 C-7.703125 120.44140625 -7.703125 120.44140625 -7.625 117.5625 C-7.60953125 116.61503906 -7.5940625 115.66757813 -7.578125 114.69140625 C-7.375 112 -7.375 112 -6.88180542 110.0693512 C-6.03007235 106.59161639 -5.98974272 103.02893417 -5.8203125 99.46484375 C-5.77826691 98.59351303 -5.73622131 97.72218231 -5.69290161 96.82444763 C-5.16841424 84.74221968 -5.22762853 72.65352213 -5.25 60.5625 C-5.24977556 58.07006836 -5.2495313 55.57763672 -5.24926758 53.08520508 C-5.26009776 42.7212331 -5.28105801 32.36428692 -5.70703125 22.0078125 C-5.73579346 21.30750412 -5.76455566 20.60719574 -5.79418945 19.88566589 C-5.92695107 16.83152122 -6.08835853 13.78158981 -6.28271484 10.73071289 C-6.33766113 9.72000732 -6.39260742 8.70930176 -6.44921875 7.66796875 C-6.53562622 6.40376099 -6.53562622 6.40376099 -6.6237793 5.11401367 C-6.375 3 -6.375 3 -5.08129883 1.20825195 C-3.375 0 -3.375 0 0 0 Z " fill="#F7F6F5" transform="translate(69.375,28)"/>
<path d="M0 0 C20.00515147 16.77434536 35.90174695 38.37046677 39 65 C40.93897011 92.42019962 36.56905277 118.43228529 18.46484375 140.0234375 C1.3775026 159.39844482 -20.80252994 174.35963262 -47.21777344 176.22753906 C-75.29909516 177.47577226 -100.7998239 172.07219251 -122.125 152.6875 C-141.0712561 134.91024243 -154.20968124 112.68082682 -155.3828125 86.2890625 C-156.07517877 58.5606379 -149.64163822 34.0097681 -130.25439453 13.34765625 C-96.23437384 -22.04702742 -40.34562203 -30.5269972 0 0 Z M-131.51757812 19.26318359 C-146.27731892 36.55580481 -152.33442443 56.92048572 -152.4375 79.25 C-152.44765137 80.51706787 -152.45780273 81.78413574 -152.46826172 83.08959961 C-152.39357284 91.14390116 -151.3511628 98.30159223 -149 106 C-148.62359375 107.258125 -148.2471875 108.51625 -147.859375 109.8125 C-143.5726461 122.12929853 -137.39550988 132.08118112 -129 142 C-128.50886719 142.62519531 -128.01773438 143.25039062 -127.51171875 143.89453125 C-113.75758248 161.05814355 -90.44376612 170.93029072 -69.13134766 173.77294922 C-45.47042641 176.29352846 -20.6152031 169.87069865 -1.8125 155.0625 C-0.20329933 153.71431928 1.40117743 152.36047214 3 151 C4.01513672 150.20335937 4.01513672 150.20335937 5.05078125 149.390625 C21.16904276 136.34097039 32.14906279 114.33937184 35 94 C36.53009871 70.96146785 34.32013079 52.28657103 23 32 C22.48953125 31.03578125 21.9790625 30.0715625 21.453125 29.078125 C10.52240622 10.03388301 -8.58903794 -3.08835147 -29 -10 C-30.06347656 -10.4125 -31.12695312 -10.825 -32.22265625 -11.25 C-68.70707564 -23.53948864 -106.79551263 -7.92028605 -131.51757812 19.26318359 Z " fill="#F1F0EF" transform="translate(155,18)"/>
<path d="M0 0 C1.65 0.33 3.3 0.66 5 1 C4.67 2.32 4.34 3.64 4 5 C2.35 4.67 0.7 4.34 -1 4 C-0.67 2.68 -0.34 1.36 0 0 Z " fill="#F6F5F4" transform="translate(102,116)"/>
</svg>
